<svg width="56" height="50" viewBox="0 0 56 50" fill="none" xmlns="http://www.w3.org/2000/svg">
<path d="M0 43.6422C1.21349 41.0921 2.74234 38.717 4.15191 36.2763C10.6101 25.0881 17.0985 13.919 23.5649 2.73626C24.3849 1.31911 25.4873 0.314673 27.1519 0.0673214C29.1497 -0.229227 30.7924 0.452698 31.866 2.13769C33.1563 4.1616 34.3081 6.27297 35.5133 8.34881C37.5043 11.7789 39.4897 15.2132 41.4766 18.646C41.5588 18.7881 41.6466 18.9275 41.7097 19.0779C41.9784 19.7065 41.8084 20.3078 41.2887 20.6002C40.7238 20.9186 40.1013 20.7792 39.7228 20.178C39.2073 19.3635 38.7383 18.5203 38.2557 17.6853C35.5929 13.0881 32.9287 8.4923 30.2741 3.88965C29.8161 3.09567 29.2347 2.46431 28.2845 2.33858C27.1506 2.18826 26.2949 2.66656 25.7218 3.63547C24.9347 4.96652 24.1641 6.30851 23.3894 7.64639C17.7183 17.4393 12.0471 27.2323 6.37457 37.0252C5.12544 39.1817 3.86807 41.334 2.62442 43.4946C1.84285 44.853 2.09926 46.2319 3.26064 47.0149C3.72959 47.3306 4.26434 47.4303 4.82241 47.4303C6.81061 47.4303 8.80018 47.4303 10.7884 47.4303C24.1244 47.4303 37.4618 47.429 50.7978 47.4344C51.652 47.4344 52.4363 47.2855 53.0342 46.6241C53.7856 45.7918 53.8747 44.6835 53.259 43.5848C52.6543 42.5052 52.0222 41.442 51.4011 40.3719C49.0029 36.2312 46.6034 32.0905 44.2079 27.9483C44.0996 27.7611 43.9981 27.563 43.9351 27.3566C43.776 26.8414 43.9488 26.4232 44.3793 26.1185C44.7893 25.8288 45.3734 25.8602 45.7478 26.2032C45.9191 26.3604 46.0604 26.5585 46.1783 26.7608C49.1825 31.9388 52.1772 37.1208 55.1828 42.2975C56.2495 44.1342 56.3222 45.949 55.0937 47.731C54.0735 49.2124 52.5721 49.7563 50.8362 49.7576C45.0169 49.7631 39.1963 49.759 33.377 49.759C24.0915 49.759 14.8045 49.7317 5.51896 49.7768C2.9014 49.7891 0.991357 48.8694 0 46.3671V43.6394V43.6422Z" fill="#F50833"/>
<path d="M31.4588 24.7125C31.4588 26.3114 31.467 27.9103 31.456 29.5092C31.4423 31.5618 29.9258 33.0937 27.9212 33.0937C25.9138 33.0937 24.3876 31.5672 24.3808 29.516C24.3698 26.2635 24.3685 23.0111 24.3808 19.7586C24.389 17.7319 25.9576 16.1768 27.9417 16.1932C29.9135 16.2096 31.441 17.7456 31.456 19.7518C31.4684 21.4053 31.4588 23.0589 31.4588 24.7125ZM26.6419 24.6195H26.6446C26.6446 26.1993 26.6295 27.7804 26.6515 29.3602C26.6638 30.2225 27.1903 30.7937 27.9033 30.8047C28.6136 30.8156 29.1772 30.2444 29.1826 29.3889C29.2018 26.2294 29.2018 23.0685 29.1826 19.9075C29.1772 19.0507 28.6122 18.474 27.9061 18.4836C27.1972 18.4945 26.694 19.0712 26.6473 19.9321C26.6391 20.077 26.6432 20.2232 26.6432 20.3681C26.6432 21.7852 26.6432 23.201 26.6432 24.6182L26.6419 24.6195Z" fill="#64748B"/>
<path d="M27.9294 35.6424C29.897 35.6465 31.4588 37.2153 31.456 39.1846C31.4533 41.1552 29.8902 42.6994 27.9061 42.6967C25.9288 42.6926 24.3753 41.136 24.378 39.1613C24.3808 37.2003 25.9563 35.6396 27.9294 35.6437V35.6424ZM26.7132 39.1805C26.7173 39.8665 27.2424 40.4022 27.9129 40.4063C28.5656 40.4104 29.1374 39.8474 29.1442 39.1928C29.1511 38.478 28.6259 37.9615 27.8992 37.971C27.1876 37.9792 26.7104 38.4671 26.7145 39.1805H26.7132Z" fill="#64748B"/>
<path d="M43.0795 22.5983C43.6828 22.5929 44.2477 23.1545 44.2367 23.7504C44.2258 24.3339 43.6937 24.8641 43.1069 24.8737C42.5008 24.8846 41.9496 24.3325 41.9565 23.7203C41.9633 23.1272 42.4857 22.6038 43.0795 22.5983Z" fill="#F50833"/>
</svg>
