<svg width="32" height="24" viewBox="0 0 32 24" fill="none" xmlns="http://www.w3.org/2000/svg">
<path d="M6.3335 1.12501V2.25001H3.55847C0.370959 2.25001 -0.154044 2.62501 0.0334572 4.76253C0.108457 5.81251 0.370959 6.30002 0.970962 6.56251C1.83346 6.93754 1.83346 6.97505 1.83346 15.0751C1.83346 22.7626 1.87097 23.2501 2.54597 23.6251C3.03347 23.8501 7.90852 24.0001 15.8211 24.0001C27.0336 24.0001 28.4211 23.9251 28.8711 23.3626C29.2836 22.9126 29.4336 20.8876 29.5086 14.8876C29.6211 7.53754 29.6961 6.93754 30.3711 6.45002C31.1961 5.88754 31.3837 3.45002 30.6336 2.70001C30.3711 2.43752 29.1336 2.25001 27.6711 2.25001C25.1961 2.25001 25.1211 2.21251 25.0086 1.20001C24.8961 0.300002 24.7461 0.187501 23.3961 0.187501C22.0461 0.187501 21.8961 0.300002 21.7836 1.20001L21.6711 2.25001H9.82101L9.59598 1.12501C9.37101 0.112501 9.22101 0 7.8335 0C6.40847 0 6.3335 0.0750006 6.3335 1.12501ZM29.8836 4.38752L29.7711 5.43754H1.27096L1.15846 4.38752L1.04596 3.37502H29.9961L29.8836 4.38752ZM28.0836 22.8751L15.6335 22.8001L3.14597 22.6876L3.03347 14.7001L2.95847 6.75002H28.0836V22.8751Z" fill="#333333"/>
<path d="M5.58344 12.5627C5.58344 12.252 5.83529 12.0002 6.14598 12.0002H11.396C11.7067 12.0002 11.9585 12.252 11.9585 12.5627C11.9585 12.8733 11.7067 13.1252 11.396 13.1252H6.14598C5.83529 13.1252 5.58344 12.8733 5.58344 12.5627Z" fill="#333333"/>
<path d="M19.4585 12.5627C19.4585 12.252 19.7104 12.0002 20.0211 12.0002H25.2711C25.5818 12.0002 25.8335 12.252 25.8335 12.5627C25.8335 12.8733 25.5818 13.1252 25.2711 13.1252H20.0211C19.7104 13.1252 19.4585 12.8733 19.4585 12.5627Z" fill="#333333"/>
<path d="M22.646 15.7502C22.3354 15.7502 22.0835 15.4984 22.0835 15.1877V9.93765C22.0835 9.62701 22.3354 9.37517 22.646 9.37517C22.9567 9.37517 23.2086 9.62701 23.2086 9.93765V15.1877C23.2086 15.4984 22.9567 15.7502 22.646 15.7502Z" fill="#333333"/>
</svg>
