<svg width="22" height="22" viewBox="0 0 22 22" fill="none" xmlns="http://www.w3.org/2000/svg">
<g clip-path="url(#clip0_599_16158)">
<rect width="22" height="21.9721" fill="white"/>
<path d="M21.9722 10.4416C21.9722 10.1624 21.7628 9.95304 21.4837 9.92513C21.2324 9.89721 20.9811 10.0647 20.9113 10.316C20.8694 10.4556 20.8694 10.5812 20.8694 10.7069V12.717C20.8694 12.717 20.8276 12.731 20.8136 12.731C20.4367 12.3541 20.0598 11.9772 19.6689 11.6003C18.259 10.2043 16.1512 10.1206 14.6296 11.4048C13.806 12.1028 12.9824 12.8147 12.1309 13.4848C11.2933 14.1269 10.372 14.1827 9.42274 13.764C9.12959 13.6383 8.8504 13.4848 8.57122 13.3452C7.38467 12.731 6.21208 12.7449 5.02553 13.3452C3.82502 13.9594 2.61056 14.5596 1.41005 15.1599C1.19601 15.2623 1.08898 15.1971 1.08898 14.9645V6.86802C1.08898 6.49112 1.1169 6.12817 1.17274 5.76523C1.67528 3.02919 4.13213 1.06091 6.84025 1.08883C9.00396 1.11675 11.1677 1.10279 13.3314 1.10279C13.471 1.10279 13.6106 1.10279 13.7502 1.06091C13.9875 0.977157 14.141 0.781726 14.1271 0.530457C14.1271 0.195431 13.9037 0 13.4989 0H6.74254C6.36563 0 5.98873 0.0279188 5.59787 0.0977157C2.48492 0.586294 0.0141114 3.46193 0.000152057 6.63071C0.000152057 9.53426 0.000152057 12.4378 0.000152057 15.3414C-0.0138073 15.6206 0.000152055 15.8997 0.0559896 16.1789C0.558528 19.5013 3.40624 21.9721 6.77046 21.9721H15.2019C15.5788 21.9721 15.9557 21.9442 16.3466 21.8744C19.3339 21.3858 21.7908 18.7475 21.9443 15.7322C22.0281 13.9733 21.9722 12.2005 21.9722 10.4416ZM20.2133 17.8401C19.1385 19.7386 17.5192 20.7995 15.3136 20.8693C13.8758 20.9112 12.424 20.8693 10.9862 20.8693C9.54837 20.8693 8.1664 20.8693 6.74254 20.8693C4.20193 20.8553 1.99634 19.1662 1.29838 16.7373C1.24254 16.5419 1.28442 16.4442 1.46589 16.3604L5.65371 14.2665C6.36563 13.9175 7.09152 13.9036 7.83137 14.2107C8.18036 14.3642 8.51538 14.5457 8.86436 14.7132C10.3441 15.4112 11.726 15.2437 12.9963 14.1967C13.792 13.5546 14.5738 12.8845 15.3694 12.2284C16.4722 11.3211 17.8961 11.3909 18.9151 12.382L20.7159 14.1827C20.7996 14.2665 20.8694 14.3503 20.8694 14.4759C20.9253 15.6485 20.7996 16.7931 20.2133 17.8401Z" fill="black"/>
<path d="M7.32875 3.6427C5.87698 3.6427 4.70439 4.81529 4.69043 6.26706C4.69043 7.74676 5.87698 8.93331 7.32875 8.93331C8.78053 8.93331 9.96708 7.71884 9.96708 6.28102C9.96708 4.84321 8.76657 3.62874 7.32875 3.6427ZM7.32875 7.83051C6.47723 7.84447 5.79322 7.13255 5.79322 6.28102C5.79322 5.4295 6.47723 4.74549 7.31479 4.73153C8.16632 4.73153 8.86429 5.44346 8.86429 6.30894C8.85033 7.13255 8.16632 7.81656 7.32875 7.83051Z" fill="black"/>
<path d="M19.7105 4.24298C19.5011 4.24298 19.2917 4.24298 19.0683 4.24298C18.8869 4.24298 18.831 4.31278 18.831 4.48029C18.831 4.88512 18.831 5.28994 18.831 5.70872C18.831 6.05771 18.6356 6.28106 18.3425 6.29502C18.0214 6.32293 17.7701 6.11354 17.7422 5.7506C17.7143 5.33182 17.7282 4.91304 17.7422 4.50821C17.7422 4.28486 17.6724 4.22903 17.463 4.22903C17.0861 4.22903 16.7092 4.22903 16.3323 4.22903C16.1788 4.22903 16.0252 4.20111 15.8856 4.10339C15.6762 3.94984 15.6343 3.75441 15.6762 3.5171C15.7321 3.29375 15.9275 3.12623 16.1788 3.12623C16.6255 3.12623 17.0582 3.12623 17.5049 3.12623C17.6724 3.12623 17.7422 3.0704 17.7282 2.90288C17.7282 2.52598 17.7282 2.14908 17.7282 1.77217C17.7282 1.6605 17.7282 1.54882 17.7701 1.43715C17.8399 1.17192 18.0772 1.00441 18.3425 1.03232C18.6077 1.06024 18.831 1.28359 18.831 1.54882C18.831 1.9676 18.831 2.38639 18.831 2.79121C18.831 3.01456 18.9427 3.12623 19.1661 3.12623C19.5709 3.12623 19.9617 3.12623 20.3666 3.12623C20.6737 3.12623 20.8831 3.34958 20.9249 3.61481C20.9529 3.85212 20.7993 4.08943 20.576 4.17319C20.5062 4.20111 20.4224 4.20111 20.3387 4.21507C20.227 4.21507 20.1293 4.21507 20.0176 4.21507C19.9059 4.21507 19.8082 4.21507 19.6965 4.21507L19.7105 4.24298Z" fill="black"/>
</g>
<defs>
<clipPath id="clip0_599_16158">
<rect width="22" height="21.9721" fill="white"/>
</clipPath>
</defs>
</svg>
