<svg width="56" height="56" viewBox="0 0 56 56" fill="none" xmlns="http://www.w3.org/2000/svg">
<path d="M46.6292 55.9886C46.0403 55.7117 45.7764 55.256 45.7735 54.5249V54.3611C45.7705 54.2479 45.769 54.1362 45.769 54.0245V1.96169C45.769 1.77853 45.772 1.59537 45.7749 1.4137C45.7884 0.706387 46.0522 0.265618 46.6277 -0.000928081H55.1831C55.7615 0.299867 56 0.739147 56 1.48369C55.9851 20.2402 55.9851 37.5851 56 54.5085C56 55.256 55.763 55.6923 55.1846 55.9886H46.6292ZM49.7195 2.42032C48.5552 2.42032 48.2869 2.69283 48.2869 3.87516V52.0992C48.2869 52.1453 48.2869 52.1915 48.2898 52.2391C48.2913 52.3121 48.2928 52.3821 48.2898 52.4357C48.2585 52.7782 48.339 53.0551 48.5269 53.2606C48.7162 53.4676 48.9935 53.5733 49.3498 53.5733H49.3826C49.7567 53.5659 50.1309 53.5644 50.5036 53.5644C50.7794 53.5644 51.0552 53.5644 51.3295 53.5659C51.6068 53.5659 51.8826 53.5674 52.1598 53.5674C53.2645 53.5659 53.5343 53.2904 53.5343 52.1691C53.5343 44.1311 53.5343 36.0945 53.5343 28.0564V10.1397C53.5343 9.53815 53.5343 8.93805 53.5328 8.33646C53.5298 6.7893 53.5283 5.18853 53.5418 3.61457C53.5447 3.35845 53.5164 2.98618 53.2421 2.70921C52.9455 2.4099 52.534 2.4099 52.3998 2.4099C52.3745 2.4099 52.3492 2.4099 52.3223 2.4099C52.0078 2.42032 51.6679 2.42628 51.2505 2.42628C50.997 2.42628 50.7436 2.42479 50.4902 2.4233C50.2338 2.42181 49.9774 2.42032 49.721 2.42032H49.7195Z" fill="#F50833"/>
<path d="M31.3475 55.9886C30.7661 55.7013 30.5276 55.2664 30.5291 54.5189C30.541 43.8109 30.541 32.9242 30.541 22.3949V11.7554C30.541 10.6192 30.9211 10.2365 32.0496 10.235C33.2646 10.235 34.4795 10.2336 35.6945 10.2336C36.9095 10.2336 38.0976 10.2335 39.2991 10.2365C40.2711 10.2365 40.7049 10.6699 40.7049 11.6378C40.7049 16.449 40.7049 21.2587 40.7049 26.07C40.7049 35.5882 40.7049 45.1064 40.7124 54.6246C40.7124 55.2903 40.4679 55.7042 39.8999 55.9886H31.3475ZM34.4259 12.695C33.2676 12.695 33.0007 12.9571 33.0007 14.1007V52.1617C33.0007 52.2019 33.0007 52.2421 33.0022 52.2838C33.0022 52.3449 33.0052 52.4014 33.0022 52.4417C32.9694 52.7782 33.0484 53.0522 33.2348 53.2577C33.5195 53.5719 33.9265 53.5734 34.0636 53.5734H34.1009C34.4825 53.5674 34.8642 53.5659 35.2458 53.5659C35.5171 53.5659 35.7884 53.5659 36.0597 53.5674C36.3325 53.5674 36.6054 53.5689 36.8767 53.5689C37.9768 53.5674 38.2452 53.3023 38.2452 52.2198V22.9756C38.2452 22.2058 38.2452 21.4374 38.2437 20.6676C38.2407 18.4801 38.2377 16.2182 38.2586 13.9965C38.2616 13.6838 38.2288 13.2877 37.9396 12.9958C37.6295 12.6831 37.1942 12.6831 37.0511 12.6831C37.0034 12.6831 36.9527 12.6831 36.9005 12.6876C36.6188 12.7025 36.3117 12.7084 35.9375 12.7084C35.6885 12.7084 35.4381 12.7054 35.1876 12.7025C34.9327 12.6995 34.6778 12.6965 34.4244 12.6965L34.4259 12.695Z" fill="#F50833"/>
<path d="M16.0598 55.9886C15.4814 55.7027 15.2444 55.2664 15.2459 54.5145C15.2578 46.6342 15.2578 38.6229 15.2563 30.8752C15.2563 27.9254 15.2563 24.9755 15.2563 22.0256C15.2563 20.8939 15.638 20.5127 16.7709 20.5112C17.9889 20.5112 19.2038 20.5097 20.4188 20.5097C21.6338 20.5097 22.8204 20.5097 24.0204 20.5127C24.9879 20.5127 25.4188 20.9475 25.4188 21.9199C25.4188 25.3492 25.4188 28.7771 25.4188 32.2065C25.4188 39.5566 25.4188 47.1569 25.4277 54.6306C25.4277 55.2992 25.1907 55.7013 24.6108 55.9886H16.0584H16.0598ZM19.0876 22.9697C17.9844 22.9712 17.7146 23.2467 17.7146 24.3694V50.5937C17.7146 50.7858 17.7146 50.9764 17.7176 51.1685C17.7205 51.5988 17.7235 52.0426 17.7116 52.4744C17.7071 52.5995 17.6952 52.9867 17.9784 53.28C18.2617 53.5719 18.6478 53.5719 18.7745 53.5719H18.8088C19.1979 53.5659 19.587 53.5644 19.9775 53.5644C20.2548 53.5644 20.5306 53.5644 20.8079 53.5659C21.0867 53.5659 21.3639 53.5674 21.6427 53.5674C22.6907 53.5659 22.962 53.2889 22.962 52.2242V35.1161C22.9605 31.5438 22.959 27.8479 22.9725 24.2161C22.9739 23.945 22.9426 23.5489 22.6594 23.2645C22.3553 22.9593 21.9319 22.9593 21.7918 22.9593C21.7575 22.9593 21.7217 22.9593 21.6844 22.9622C21.3759 22.9756 21.0434 22.9816 20.6364 22.9816C20.38 22.9816 20.1251 22.9786 19.8687 22.9771C19.6093 22.9742 19.3499 22.9727 19.089 22.9727L19.0876 22.9697Z" fill="#F50833"/>
<path d="M0 55.9991C0.0104352 49.0614 0.0104352 42.0121 0.0104352 35.1951V31.5855C0.290696 31.0107 0.712578 30.774 1.43559 30.774H1.47733C2.35986 30.7859 3.31841 30.7918 4.4961 30.7904C5.15501 30.7904 5.81541 30.7889 6.47432 30.7874C7.13324 30.7859 7.79066 30.7844 8.44957 30.7844H8.68213C9.66006 30.7859 10.079 31.1656 10.1729 32.138C10.1893 32.3107 10.1893 32.4968 10.1893 32.6934C10.1893 39.8395 10.1923 46.9871 10.1893 54.1347C10.1893 54.6872 10.1893 55.1652 9.90901 55.5375C9.76739 55.7266 9.56912 55.8591 9.31718 55.9886H5.03873C3.65085 55.9872 1.83511 55.9886 0 55.9991ZM3.59867 33.2295C3.22002 33.2295 2.93529 33.3307 2.72956 33.5392C2.44483 33.8266 2.41203 34.2242 2.4165 34.5399C2.43439 36.0841 2.43141 37.655 2.42843 39.1754C2.42843 39.7472 2.42694 40.3205 2.42694 40.8923C2.42694 41.8677 2.42694 42.8415 2.42843 43.8169C2.43141 46.5881 2.4329 49.4516 2.41501 52.2674C2.41203 52.5801 2.44632 52.9777 2.73553 53.2696C3.0456 53.5823 3.4809 53.5823 3.62401 53.5823C3.66873 53.5823 3.71644 53.5823 3.76712 53.5778C4.18602 53.557 4.61685 53.5451 5.04619 53.5451C5.47552 53.5451 5.8974 53.5555 6.32674 53.5763C6.37594 53.5793 6.42513 53.5808 6.47134 53.5808C6.72179 53.5808 7.08851 53.548 7.36728 53.2666C7.65947 52.9718 7.69078 52.5578 7.68779 52.2719C7.66543 50.1083 7.66842 47.9059 7.6714 45.7765C7.6714 45.0067 7.67438 44.2368 7.67438 43.4654C7.67438 42.6941 7.67438 41.9213 7.67289 41.1484C7.6714 38.9654 7.66842 36.708 7.68481 34.4892C7.6863 34.2182 7.65798 33.8251 7.37474 33.5392C7.07062 33.2339 6.64576 33.2339 6.50563 33.2339C6.46985 33.2339 6.43258 33.2339 6.39382 33.2369C5.90188 33.2548 5.44869 33.2637 5.01488 33.2637C4.58107 33.2637 4.12789 33.2533 3.71793 33.2339C3.67619 33.2325 3.63743 33.231 3.60016 33.231L3.59867 33.2295Z" fill="#F50833"/>
<path d="M1.15086 14.6353C0.602263 14.6353 0.217649 14.1394 0.0089445 13.7716V12.9437C0.141621 12.6965 0.336909 12.4493 0.629096 12.1574C1.07334 11.7152 1.5146 11.2714 1.95735 10.8262C2.85031 9.92978 3.77458 9.00208 4.69288 8.10416C4.86879 7.93143 5.10433 7.65892 5.10433 7.2807C5.10433 6.90247 4.86581 6.6255 4.68692 6.4483C3.84166 5.62037 2.99044 4.76563 2.16755 3.94068C1.63982 3.41056 1.1121 2.88194 0.581392 2.3548C0.320511 2.09421 0.135658 1.85596 0.0089445 1.61026C0.0089445 1.46284 0.0089445 1.31691 0.0089445 1.16949C0.0089445 0.785309 0.011926 0.390701 0.0089445 -0.00390625C0.186344 -0.00241717 0.37865 -0.000928081 0.594809 -0.000928081C0.788606 -0.000928081 0.983895 -0.000928081 1.17769 -0.000928081C1.32528 -0.000928081 1.47137 -0.000928081 1.61895 -0.000928081C1.8694 0.130111 2.10941 0.314758 2.36284 0.57088C2.89951 1.11142 3.43767 1.64898 3.97732 2.18803C4.79276 3.00256 5.63503 3.84389 6.45345 4.67926C6.64427 4.87433 6.91111 5.0977 7.28529 5.0977C7.65947 5.0977 7.93824 4.86242 8.10968 4.68522C8.99369 3.77986 9.90454 2.87003 10.7856 1.98998C11.2432 1.53283 11.7024 1.07568 12.1586 0.615553C12.4448 0.32816 12.6908 0.13309 12.9442 -0.00241717H13.7701C14.1398 0.204566 14.5438 0.530675 14.6183 0.990802C14.6839 1.39286 14.4707 1.86489 14.0205 2.31907C12.6714 3.6786 11.276 5.0843 9.88218 6.45128C9.68689 6.64188 9.46477 6.90842 9.46477 7.2807C9.46477 7.65743 9.70031 7.92994 9.87621 8.10267C10.8214 9.02888 11.7724 9.98189 12.6922 10.9051C13.1469 11.3623 13.6016 11.8179 14.0578 12.2736C14.3977 12.6131 14.5512 12.8692 14.584 13.1581C14.6541 13.7627 14.4305 14.2317 13.9549 14.4774C13.7775 14.5698 13.5867 14.6159 13.3884 14.6159C13.0426 14.6159 12.7057 14.47 12.4358 14.2064C11.0733 12.8663 9.61533 11.4218 8.19167 9.95211C7.97998 9.73322 7.68481 9.48305 7.2838 9.48305C6.88279 9.48305 6.58464 9.73768 6.36997 9.95956C5.28322 11.0853 4.15174 12.2081 3.05753 13.2951L2.32408 14.0233C1.92158 14.4238 1.51609 14.6353 1.14937 14.6353H1.15086Z" fill="#64748B"/>
</svg>
