<svg width="28" height="16" viewBox="0 0 28 16" fill="none" xmlns="http://www.w3.org/2000/svg">
<path d="M0 1.70631C0.201568 1.02267 0.587085 0.492668 1.25311 0.193135C1.59845 0.0380825 1.96141 2.42017e-05 2.33495 0.000728985C9.3856 0.00284334 16.4363 0.00213855 23.4869 0.00213855C23.9796 0.00213855 24.4729 -0.0042045 24.9656 0.00495769C25.8768 0.0225773 26.6465 0.577242 26.965 1.43285C26.9989 1.52377 27.0306 1.61468 27.0637 1.7056V14.286C26.8875 14.8583 26.5943 15.3453 26.0671 15.6645C25.6626 15.9098 25.2228 15.9916 24.7541 15.9916C18.2757 15.9887 11.7974 15.9895 5.31971 15.9895C4.36895 15.9895 3.4175 15.9606 2.46815 15.9965C1.24183 16.0437 0.336182 15.4503 0 14.2853V1.70631ZM13.5311 4.31048C9.49696 4.31048 5.46278 4.31048 1.4293 4.31048C1.07691 4.31048 1.0755 4.31119 1.0755 4.65442C1.0755 6.88294 1.0755 9.11147 1.0755 11.3393C1.0755 11.6818 1.0762 11.6825 1.43001 11.6825C9.49837 11.6825 17.566 11.6825 25.6344 11.6825C25.9868 11.6825 25.9882 11.6818 25.9882 11.3386C25.9882 9.11922 25.9882 6.89915 25.9882 4.67979C25.9882 4.43358 25.8611 4.31048 25.6069 4.31048C21.5819 4.31048 17.5562 4.31048 13.5311 4.31048ZM13.5326 3.18142C17.5223 3.18142 21.5114 3.18142 25.5012 3.18142C25.5893 3.18142 25.6774 3.17719 25.7655 3.18142C25.917 3.18847 25.9938 3.13067 25.9896 2.96716C25.9819 2.70287 25.9981 2.43787 25.9833 2.17499C25.9537 1.64922 25.6598 1.263 25.2059 1.16362C25.0367 1.12627 24.8556 1.13402 24.6801 1.13402C17.2475 1.13261 9.81411 1.13261 2.38146 1.13332C2.28491 1.13332 2.18765 1.13261 2.09109 1.13614C1.60127 1.15235 1.24183 1.44413 1.1192 1.91704C1.08114 2.06434 1.06634 2.21234 1.07761 2.36175C1.09735 2.62182 0.962735 2.94813 1.14175 3.12433C1.30949 3.28995 1.62946 3.18001 1.88177 3.18001C5.76584 3.18353 9.64849 3.18142 13.5326 3.18142ZM13.534 12.8116C9.53572 12.8116 5.53749 12.8116 1.53925 12.8116C1.45115 12.8116 1.36305 12.8151 1.27495 12.8123C1.12765 12.8081 1.07198 12.8799 1.0748 13.023C1.08043 13.2958 1.06422 13.5699 1.08255 13.842C1.11779 14.3565 1.40886 14.73 1.85499 14.8294C2.02414 14.8667 2.20456 14.8604 2.38005 14.8604C9.8127 14.8618 17.2454 14.8618 24.6787 14.8611C24.7844 14.8611 24.8901 14.8618 24.9959 14.8576C25.4793 14.8371 25.8374 14.5298 25.9473 14.0541C26.0136 13.7659 25.9826 13.4755 25.9868 13.1858C25.9924 12.813 25.9875 12.8123 25.6076 12.8123C21.5833 12.8123 17.5583 12.8116 13.534 12.8116Z" fill="#64748B"/>
<path d="M3.94467 9.56534C4.45282 9.56534 4.96027 9.56534 5.46771 9.56534C5.76725 9.56534 6.06678 9.55829 6.36561 9.56957C6.6743 9.58084 6.90688 9.8106 6.92309 10.0989C6.9386 10.3709 6.7335 10.6126 6.43397 10.6599C6.30429 10.6803 6.17109 10.6867 6.04 10.6874C5.0096 10.6895 3.97991 10.6888 2.94952 10.6881C2.85296 10.6881 2.7557 10.6867 2.65915 10.6768C2.41318 10.6528 2.21936 10.5464 2.13197 10.3018C2.04951 10.0707 2.1214 9.87403 2.27927 9.69502C2.89596 8.99446 3.50841 8.29109 4.12298 7.58842C4.40137 7.27056 4.68188 6.95411 4.95886 6.63555C5.00185 6.58622 5.08995 6.5397 5.04837 6.46359C5.01031 6.39381 4.9201 6.42905 4.85314 6.42835C4.15752 6.42623 3.4619 6.42835 2.76628 6.42623C2.35821 6.42482 2.11788 6.23453 2.10026 5.90681C2.08264 5.5671 2.32015 5.3162 2.72751 5.31197C3.90732 5.29928 5.08713 5.30492 6.26694 5.30985C6.53687 5.31126 6.77086 5.39584 6.88151 5.67705C6.98864 5.94839 6.86318 6.15419 6.69474 6.3473C5.81376 7.35443 4.93208 8.36086 4.05251 9.36941C4.00951 9.41875 3.93833 9.45469 3.94467 9.56534Z" fill="#64748B"/>
<path d="M8.53705 5.32466C8.71042 5.3169 8.86125 5.44588 8.99868 5.60304C9.39759 6.06115 9.80284 6.51292 10.1933 6.97808C10.3131 7.12115 10.385 7.11128 10.4985 6.98019C10.9249 6.48825 11.3534 5.99772 11.7903 5.51565C11.9856 5.30069 12.259 5.26757 12.4845 5.40148C12.7051 5.53186 12.8073 5.79545 12.7312 6.04072C12.6967 6.15278 12.6241 6.24087 12.548 6.32756C12.1138 6.82444 11.6846 7.32624 11.2448 7.81748C11.1278 7.94857 11.1208 8.03737 11.2413 8.17198C11.6994 8.68295 12.1462 9.20379 12.5966 9.7218C12.77 9.92126 12.8123 10.1461 12.6861 10.3815C12.5642 10.6091 12.3577 10.6859 12.1068 10.6578C11.9447 10.6394 11.8368 10.5372 11.7368 10.4238C11.335 9.96848 10.9298 9.516 10.5372 9.05296C10.397 8.88804 10.3145 8.86337 10.1602 9.05085C9.76337 9.53292 9.34191 9.99526 8.92891 10.4632C8.75976 10.6542 8.54339 10.7078 8.30517 10.6352C8.09021 10.5704 7.98027 10.4033 7.94362 10.1884C7.90908 9.9875 8.00423 9.83104 8.12968 9.68727C8.56947 9.18335 9.00432 8.6752 9.45397 8.18044C9.58294 8.03807 9.58576 7.95561 9.45538 7.81184C8.98881 7.29664 8.53634 6.76876 8.08246 6.24299C7.92459 6.05975 7.89005 5.85113 7.99789 5.62912C8.09585 5.42755 8.26359 5.3317 8.53846 5.32466H8.53705Z" fill="#64748B"/>
<path d="M22.878 10.6979C22.6539 10.6881 22.4593 10.6916 22.2676 10.6676C21.9272 10.626 21.7172 10.3906 21.7334 10.0918C21.7489 9.79721 21.9914 9.57521 22.3219 9.56745C22.6299 9.56041 22.9379 9.56745 23.2459 9.56393C23.6187 9.5597 23.8287 9.38069 23.8351 9.06847C23.8407 8.75202 23.6384 8.56243 23.2698 8.54552C23.1381 8.53917 23.0055 8.54552 22.8738 8.5427C22.5129 8.53495 22.2585 8.30378 22.2641 7.98874C22.2691 7.68286 22.5164 7.45874 22.8625 7.45028C23.0119 7.44676 23.1627 7.45663 23.3114 7.44464C23.6582 7.41857 23.8478 7.21982 23.8351 6.90901C23.8238 6.61723 23.6208 6.43539 23.2846 6.42905C22.9675 6.42271 22.651 6.43117 22.3339 6.42482C21.9984 6.41778 21.7588 6.20775 21.7348 5.91174C21.7109 5.61291 21.9188 5.36201 22.2557 5.32747C22.7377 5.27743 23.2269 5.26545 23.7026 5.35919C24.7668 5.56922 25.2926 6.78356 24.7393 7.74488C24.635 7.92601 24.6216 8.04794 24.7323 8.23823C25.3447 9.28836 24.6907 10.5408 23.4792 10.6613C23.2691 10.6824 23.0591 10.6867 22.878 10.6979Z" fill="#64748B"/>
<path d="M19.6719 7.62859C19.6719 8.18326 19.6783 8.73863 19.6684 9.29329C19.6649 9.49839 19.7325 9.58719 19.9419 9.56745C20.0462 9.55759 20.1547 9.56111 20.2576 9.57802C20.5163 9.62102 20.7221 9.86417 20.7235 10.113C20.7256 10.3709 20.5367 10.6091 20.2703 10.6542C19.8425 10.7268 19.409 10.6824 18.9777 10.6859C18.6521 10.6888 18.3258 10.7134 18.0016 10.6648C17.6781 10.6162 17.4758 10.3899 17.4871 10.0989C17.4991 9.79862 17.7338 9.58366 18.0685 9.56675C18.3833 9.55077 18.5407 9.38656 18.5407 9.07411C18.5407 8.40456 18.5372 7.73502 18.5429 7.06618C18.5443 6.87447 18.5288 6.78074 18.2976 6.88857C17.9797 7.03657 17.6717 6.91606 17.5407 6.63062C17.4089 6.34307 17.5202 6.0534 17.8409 5.88566C18.1602 5.71793 18.483 5.55512 18.81 5.40148C19.2589 5.19075 19.6557 5.43531 19.667 5.93852C19.6797 6.50164 19.6698 7.06547 19.6698 7.6293L19.6719 7.62859Z" fill="#64748B"/>
<path d="M15.0965 8.54199C14.842 8.54199 14.5869 8.54834 14.3325 8.54058C13.9998 8.53072 13.7806 8.30871 13.7806 7.99508C13.7806 7.68216 14.0005 7.45733 14.3339 7.4524C14.8604 7.44464 15.3875 7.44464 15.914 7.4524C16.246 7.45733 16.4666 7.68568 16.4666 7.9972C16.4666 8.30871 16.2453 8.53142 15.9126 8.54058C15.6406 8.54834 15.3685 8.54199 15.0965 8.54199Z" fill="#64748B"/>
</svg>
