<svg width="27" height="24" viewBox="0 0 27 24" fill="none" xmlns="http://www.w3.org/2000/svg">
<path d="M9.98426 0.358901C6.06141 1.4905 2.81745 4.28179 1.04461 8.12927C-0.2756 10.9582 -0.351041 15.711 0.856002 18.3891C1.57269 19.9734 1.57269 20.1997 1.04461 21.0673C0.327922 22.2366 0.629682 23.1418 1.91217 23.6322C3.23237 24.1226 23.6012 24.1226 24.9214 23.6322C26.2039 23.1418 26.5057 22.2366 25.789 21.0673C25.2609 20.1997 25.2609 19.9734 25.9776 18.3891C26.5811 17.0689 26.7698 15.8619 26.8075 13.4478C26.8075 10.5434 26.6943 9.97753 25.6004 7.75205C23.3372 3.18791 19.188 0.358901 14.2844 0.0194197C12.7756 -0.0560204 11.0027 0.0948597 9.98426 0.358901ZM18.3959 2.01859C24.3179 4.65899 27.1469 11.2223 25.1101 17.597C24.3934 19.7848 24.3179 20.426 24.6951 21.2181C24.9214 21.7462 25.0346 22.3497 24.9214 22.5383C24.6197 22.991 2.21393 22.991 1.91217 22.5383C1.79901 22.3497 1.91217 21.7462 2.13849 21.2181C2.51569 20.426 2.44025 19.8225 1.76129 17.7856C-0.0492796 12.2407 1.45952 7.1485 5.94824 3.5274C9.15443 0.962421 14.5107 0.321181 18.3959 2.01859Z" fill="#333333"/>
<path d="M10.2105 5.30019C6.96663 6.73357 5.00518 9.71348 5.00518 13.2592C5.00518 18.2005 8.58861 21.7462 13.4922 21.7462C20.7345 21.7085 24.6197 13.2592 19.9423 7.78972C19.1879 6.88445 17.8677 5.86602 17.0379 5.4888C15.2273 4.65895 11.8702 4.58352 10.2105 5.30019ZM16.9247 6.9599C20.8099 9.2231 21.8284 14.6171 18.9616 17.861C16.2081 20.9918 11.9457 21.4444 8.89033 18.8417C4.62798 15.2583 5.83503 8.35555 11.0404 6.43179C12.7755 5.79057 15.3405 6.0169 16.9247 6.9599Z" fill="#333333"/>
<path d="M11.3422 7.26167C9.34304 7.94061 8.89038 8.46871 9.79565 9.14765C10.8518 9.90209 12.0211 9.82664 13.1905 8.8836C15.1142 7.37483 13.9449 6.3564 11.3422 7.26167Z" fill="#333333"/>
<path d="M16.3211 8.05377C15.944 8.43099 16.0194 9.52487 16.472 10.5433C16.8493 11.4109 18.2072 12.3162 19.0747 12.3162C19.8668 12.3162 19.3765 10.3924 18.2826 9.10993C17.1133 7.78972 16.7738 7.60111 16.3211 8.05377Z" fill="#333333"/>
<path d="M7.23083 11.3731C6.92906 12.1653 6.92906 14.353 7.23083 15.1074C7.608 16.0882 8.4756 15.7864 9.11682 14.4285C9.64492 13.3346 9.68264 13.0328 9.22998 12.0898C8.62649 10.8451 7.57028 10.4679 7.23083 11.3731Z" fill="#333333"/>
<path d="M13.0397 11.1845C13.0397 11.3731 13.3037 11.5617 13.6054 11.5617C13.9072 11.5617 14.1713 11.3731 14.1713 11.1845C14.1713 10.9582 13.9072 10.8073 13.6054 10.8073C13.3037 10.8073 13.0397 10.9582 13.0397 11.1845Z" fill="#333333"/>
<path d="M10.7764 13.2591C10.7764 13.5609 11.0405 13.8249 11.3422 13.8249C11.644 13.8249 11.908 13.5609 11.908 13.2591C11.908 12.9574 11.644 12.6933 11.3422 12.6933C11.0405 12.6933 10.7764 12.9574 10.7764 13.2591Z" fill="#333333"/>
<path d="M15.1895 12.9574C14.7369 13.3723 14.8878 13.8249 15.4913 13.8249C15.7931 13.8249 16.0571 13.5609 16.0571 13.2591C16.0571 12.6556 15.6045 12.5047 15.1895 12.9574Z" fill="#333333"/>
<path d="M16.887 15.447C16.0194 16.3523 15.7554 18.1252 16.4344 18.5401C17.3019 19.1059 19.4519 16.6918 19.4519 15.1453C19.4519 14.2777 17.7923 14.4663 16.887 15.447Z" fill="#333333"/>
<path d="M13.0397 15.5223C13.0397 15.8618 13.2283 16.0881 13.4546 16.0126C13.6809 15.9372 13.8695 15.7109 13.8695 15.5223C13.8695 15.3337 13.6809 15.1074 13.4546 15.0319C13.2283 14.9565 13.0397 15.1828 13.0397 15.5223Z" fill="#333333"/>
<path d="M9.79565 17.4085C9.07899 17.9365 9.11671 17.9742 10.022 18.6909C11.0404 19.483 13.1905 20.0489 13.794 19.6717C14.3975 19.2944 14.2466 18.7664 13.2282 17.7856C12.2097 16.7295 10.8895 16.5786 9.79565 17.4085Z" fill="#333333"/>
</svg>
