<svg width="33" height="24" viewBox="0 0 33 24" fill="none" xmlns="http://www.w3.org/2000/svg">
<path d="M22.6943 8.9738H27.7118V8.094C27.7118 6.2428 26.1623 4.73694 24.258 4.73694H22.2694V8.56025C22.2694 8.7882 22.4597 8.9738 22.6943 8.9738Z" stroke="#333333"/>
<path d="M7.75612 17.4474C6.08888 17.4474 4.73252 18.8049 4.73252 20.4736C4.73252 22.1424 6.08893 23.5 7.75612 23.5C9.42326 23.5 10.7797 22.1424 10.7797 20.4736C10.7797 18.8049 9.42331 17.4474 7.75612 17.4474Z" stroke="#333333"/>
<path d="M25.5953 17.4474C24.0948 17.4474 22.8741 18.8049 22.8741 20.4736C22.8741 22.1424 24.0948 23.5 25.5953 23.5C27.0957 23.5 28.3165 22.1424 28.3165 20.4736C28.3165 18.8049 27.0958 17.4474 25.5953 17.4474Z" stroke="#333333"/>
<path d="M22.2906 3.52636H23.1552C23.6676 3.52636 24.0835 3.12023 24.0835 2.61846C24.0835 2.11731 23.6676 1.71057 23.1552 1.71057H19.5694C19.0563 1.71057 18.6411 2.11731 18.6411 2.61846C18.6411 3.12023 19.0563 3.52636 19.5694 3.52636H20.434V4.73689H22.2906V3.52636Z" stroke="#333333"/>
<path d="M28.8782 15.4608C28.3691 15.4608 27.957 15.051 27.957 14.5459C27.957 14.0402 28.3691 13.6309 28.8782 13.6309H31.9226C31.8096 12.8343 31.2655 12.1389 30.4984 11.8436L28.2696 10.9873H22.8379C21.5777 10.9873 20.5526 9.96855 20.5526 8.71695V4.64538H18.0579C17.5487 4.64538 17.1366 5.0553 17.1366 5.56035V11.9457L12.0335 1.9351C11.5849 1.05484 10.6759 0.5 9.68242 0.5H4.27579C3.40632 0.5 2.7015 1.20001 2.7015 2.0635L2.68891 5.05405C1.42202 5.44425 0.499542 6.6172 0.499542 7.9998C0.499542 9.7001 1.89492 11.0835 3.6101 11.0835C5.32527 11.0835 6.72066 9.7001 6.72066 7.9998C6.72066 7.4945 6.30818 7.0848 5.79939 7.0848C5.29065 7.0848 4.87816 7.4945 4.87816 7.9998C4.87816 8.6911 4.30933 9.2535 3.6101 9.2535C2.91087 9.2535 2.34203 8.691 2.34203 7.9998C2.34203 7.30845 2.91087 6.74605 3.6101 6.74605C4.11887 6.74605 4.53135 6.33635 4.53135 5.83105V3.62707H9.03361L13.729 12.838H1.42079C0.912258 12.838 0.499542 13.2474 0.499542 13.753V16.9188C0.499542 18.6069 1.69464 20.0242 3.29129 20.385C3.33895 18.0526 5.26662 16.1698 7.62933 16.1698C10.0218 16.1698 11.9682 18.1004 11.9682 20.4734L21.5781 20.4737C21.5781 18.1006 23.5245 16.1698 25.917 16.1698C28.3095 16.1698 30.2558 18.1004 30.2558 20.4734L31.0235 20.4737C31.532 20.4737 31.9448 20.0638 31.9448 19.5587V15.4609L28.8782 15.4608Z" stroke="#333333"/>
</svg>
