<svg width="26" height="16" viewBox="0 0 26 16" fill="none" xmlns="http://www.w3.org/2000/svg">
<path d="M0 14.0141C0 9.60079 0 6.40119 0 1.98792C0.0138969 1.93763 0.0277939 1.88734 0.0416908 1.8377C0.366614 0.683597 1.26264 0.00264703 2.46571 0.00264703C8.47845 0.00198528 16.8815 0.00397055 22.8942 0C23.5553 0 24.1231 0.210439 24.6048 0.656465C24.9966 1.01845 25.2176 1.47572 25.3374 1.98792V14.0147C25.3109 14.108 25.2865 14.2013 25.2587 14.294C24.9589 15.2886 24.0337 15.998 23.006 15.998C16.9112 16.0007 8.42617 15.9993 2.33138 16C2.05079 16 1.78079 15.9484 1.52271 15.8438C0.688891 15.5063 0.201836 14.8783 0 14.0141ZM11.4749 14.9921C14.4846 14.9921 19.8845 14.9948 22.8949 14.9908C23.7684 14.9895 24.3435 14.4184 24.3441 13.5475C24.3474 9.44793 24.3474 6.562 24.3441 2.4624C24.3435 1.57829 23.7704 1.01117 22.881 1.01117C16.8689 1.00918 8.46654 1.00852 2.45446 1.01117C1.56506 1.01117 0.994623 1.57962 0.993962 2.46571C0.991314 6.55803 0.992638 9.43602 0.993962 13.5283C0.993962 13.6693 0.9933 13.8102 1.03102 13.9499C1.20705 14.5997 1.73712 14.9915 2.46902 14.9915C5.47142 14.9935 8.47382 14.9921 11.4762 14.9921H11.4749Z" fill="#64748B"/>
<path d="M7.63272 8.77492C8.25213 8.77492 8.87154 8.77227 9.4916 8.77492C10.9038 8.7822 11.95 9.59087 11.9533 10.9984C11.954 11.2889 11.9567 11.5795 11.952 11.87C11.9474 12.1711 11.7588 12.3842 11.4895 12.4033C11.2254 12.4219 10.9872 12.2293 10.962 11.9342C10.9356 11.6311 10.9475 11.324 10.9448 11.0189C10.9356 10.1276 10.3585 9.78807 9.47109 9.78675C8.24684 9.78476 7.02258 9.78476 5.79833 9.78675C4.9076 9.78807 4.33253 10.1242 4.32327 11.017C4.31996 11.3147 4.33584 11.6145 4.30937 11.9103C4.27364 12.3041 3.91033 12.5145 3.58739 12.3484C3.43916 12.2723 3.326 12.1499 3.32401 11.9838C3.31872 11.4782 3.26115 11.2082 3.35975 10.7073C3.57879 9.60146 4.55158 8.79411 5.68384 8.77691C6.33303 8.76698 6.98354 8.77492 7.63272 8.77492Z" fill="#64748B"/>
<path d="M7.61883 7.86566C6.29399 7.86368 5.21069 6.78104 5.21135 5.45951C5.21201 4.1393 6.32046 3.04343 7.64728 3.05005C8.96286 3.05666 10.062 4.15981 10.0548 5.46546C10.0468 6.80155 8.96484 7.86765 7.61883 7.86566ZM7.62941 6.85648C8.41426 6.8578 9.05484 6.22649 9.04624 5.46083C9.0383 4.69716 8.40764 4.06585 7.64794 4.06121C6.86177 4.05658 6.2106 4.70179 6.22053 5.47539C6.23046 6.24237 6.85582 6.85516 7.62941 6.85648Z" fill="#64748B"/>
<path d="M17.8681 12.4073C16.9648 12.4073 16.0615 12.4073 15.1582 12.4073C15.0391 12.4073 14.9193 12.4106 14.8062 12.361C14.6077 12.275 14.4985 12.1208 14.4958 11.9097C14.4932 11.6886 14.603 11.5285 14.8115 11.4398C14.9326 11.3882 15.0603 11.3961 15.1867 11.3961C16.9708 11.3961 19.2803 11.3961 21.0644 11.3961C21.5118 11.3961 21.7427 11.5656 21.7474 11.8931C21.752 12.2333 21.5211 12.4073 21.0585 12.4073C20.1697 12.4073 18.7569 12.4073 17.8681 12.4073Z" fill="#64748B"/>
<path d="M17.8523 4.05658C16.9119 4.05658 15.9715 4.05923 15.0305 4.05526C14.6606 4.05393 14.4257 3.77202 14.5104 3.44379C14.5594 3.25453 14.6798 3.12813 14.8704 3.08446C14.9782 3.05931 15.0921 3.05137 15.2026 3.05137C16.9715 3.04938 19.2658 3.05005 21.0347 3.05137C21.124 3.05137 21.2147 3.05335 21.302 3.06857C21.6018 3.12085 21.7699 3.33195 21.7454 3.61453C21.7222 3.87791 21.5197 4.05459 21.2206 4.05592C20.273 4.05923 18.8006 4.05658 17.8523 4.05658Z" fill="#64748B"/>
<path d="M17.8701 7.22508C18.8105 7.22508 20.2763 7.2231 21.2166 7.2264C21.5369 7.22773 21.7421 7.41964 21.748 7.70684C21.7527 7.93978 21.619 8.12441 21.396 8.19323C21.2729 8.23095 21.1458 8.23162 21.0188 8.23162C19.2572 8.23162 16.9708 8.23162 15.2092 8.23029C15.1126 8.23029 15.014 8.22764 14.92 8.20912C14.6507 8.15618 14.4766 7.9378 14.4952 7.68765C14.5157 7.41831 14.7155 7.22773 15.0041 7.22707C15.9596 7.2231 16.9152 7.22574 17.8701 7.22508Z" fill="#64748B"/>
</svg>
