<svg width="18" height="32" viewBox="0 0 18 32" fill="none" xmlns="http://www.w3.org/2000/svg">
<path d="M8.98227 18C4.62915 17.9953 1.11603 14.1961 1.12478 9.50157C1.13571 4.88204 4.67946 1.12032 9.01727 1.12501C13.3616 1.1297 16.8769 4.91251 16.8748 9.58125C16.8726 14.2313 13.3332 18.0047 8.98227 18Z" fill="white"/>
<path d="M17.8333 7.62099C17.0895 3.28212 13.2908 0.00462959 9.00886 6.89123e-06C4.6213 -0.00554035 0.851604 3.33852 0.128999 7.92054C-0.215141 10.1089 0.125478 12.2002 1.19662 14.1214C2.71929 16.8534 5.02089 18.3947 8.00812 18.8597V19.2896C8.00812 21.7341 8.00284 24.1786 8.01605 26.6231C8.01781 26.8755 8.08118 27.1556 8.19912 27.3719C8.4086 27.7584 8.8918 27.9082 9.29755 27.7824C9.7209 27.6502 10.0008 27.2444 10.0017 26.7303C10.0052 24.2507 10.0034 21.7711 10.0034 19.2924V18.8523C12.6025 18.4843 14.7131 17.2381 16.2578 15.0247C17.806 12.8077 18.2962 10.3188 17.8333 7.62099ZM8.9895 16.7712C5.13619 16.7675 2.02749 13.4715 2.03541 9.39796C2.04421 5.38915 5.18195 2.12552 9.02206 2.13015C12.8674 2.13385 15.9788 5.41689 15.9761 9.4673C15.9735 13.5011 12.8419 16.7749 8.9895 16.7712Z" fill="#0CCA4A"/>
<path d="M16.1805 28.9474C15.3259 29.9523 14.2151 30.5107 13.0172 30.9065C11.7084 31.3401 10.3592 31.4926 8.9113 31.5C7.15276 31.4797 5.36253 31.2078 3.68672 30.3563C2.90778 29.9606 2.2063 29.4549 1.67469 28.7218C0.750529 27.4459 0.798938 25.8751 1.80055 24.663C2.58917 23.7089 3.61895 23.1551 4.73234 22.7585C5.23755 22.5782 5.78676 22.8972 5.95663 23.4112C6.12914 23.9345 5.89238 24.4901 5.39597 24.7351C4.93037 24.9644 4.45157 25.1706 4.00797 25.4396C3.73865 25.6024 3.49573 25.84 3.29153 26.0896C2.91306 26.5509 2.92539 26.9901 3.28977 27.4644C3.6788 27.971 4.19985 28.2928 4.75522 28.5498C6.50849 29.3643 8.35505 29.5141 10.2368 29.3477C11.3925 29.2451 12.5217 28.9917 13.5471 28.4028C13.9722 28.1578 14.3753 27.8342 14.7177 27.4736C15.1331 27.0354 15.1076 26.5602 14.7318 26.0776C14.2873 25.5071 13.68 25.1854 13.0507 24.9025C12.9195 24.8433 12.7831 24.7999 12.652 24.7407C12.1467 24.5096 11.9047 23.9632 12.0684 23.4325C12.2286 22.9147 12.7673 22.58 13.2804 22.7566C14.4087 23.144 15.4508 23.7043 16.2377 24.6751C17.3018 25.986 17.2772 27.6595 16.1805 28.9474Z" fill="#CBD5E1"/>
<path d="M9.04597 12.779C7.29446 12.7771 5.88094 11.2785 5.88446 9.42661C5.88886 7.60435 7.31471 6.12046 9.06005 6.12231C10.808 6.12416 12.2224 7.61637 12.2216 9.45805C12.2207 11.2923 10.7966 12.7808 9.04597 12.779Z" fill="#CBD5E1"/>
</svg>
