<svg width="11" height="19" viewBox="0 0 11 19" fill="none" xmlns="http://www.w3.org/2000/svg">
<path d="M10.8984 4.59679C10.4439 1.97969 8.1224 0.00279245 5.50566 4.15661e-06C2.82437 -0.0033418 0.520669 2.01371 0.0790767 4.77747C-0.131231 6.09745 0.0769252 7.35887 0.731514 8.51769C1.66203 10.1656 3.06856 11.0952 4.8941 11.3757V11.635C4.8941 13.1095 4.89087 14.5839 4.89894 16.0584C4.90001 16.2106 4.93874 16.3796 5.01082 16.5101C5.13883 16.7432 5.43412 16.8335 5.68208 16.7577C5.94079 16.6779 6.11184 16.4331 6.11238 16.123C6.11453 14.6274 6.11345 13.1318 6.11345 11.6367V11.3712C7.70178 11.1493 8.9916 10.3976 9.93556 9.06252C10.8817 7.72525 11.1813 6.22404 10.8984 4.59679ZM5.49382 10.1159C3.13902 10.1137 1.23926 8.12565 1.24411 5.66861C1.24948 3.2506 3.16699 1.28206 5.51373 1.28485C7.86368 1.28708 9.76506 3.26733 9.76344 5.71043C9.76183 8.1435 7.84809 10.1182 5.49382 10.1159Z" fill="#64748B"/>
<path d="M9.88822 17.4603C9.36595 18.0665 8.68716 18.4033 7.95512 18.642C7.1553 18.9035 6.33075 18.9955 5.44595 19C4.37128 18.9877 3.27725 18.8238 2.25314 18.3102C1.77713 18.0715 1.34845 17.7665 1.02357 17.3242C0.458807 16.5547 0.48839 15.6072 1.10049 14.8761C1.58242 14.3006 2.21173 13.9666 2.89214 13.7273C3.20087 13.6186 3.53651 13.811 3.64031 14.121C3.74574 14.4367 3.60105 14.7718 3.29769 14.9196C3.01316 15.0579 2.72056 15.1823 2.44947 15.3446C2.28488 15.4427 2.13643 15.586 2.01164 15.7366C1.78036 16.0149 1.78789 16.2797 2.01057 16.5658C2.2483 16.8714 2.56672 17.0655 2.90612 17.2205C3.97756 17.7118 5.10601 17.8022 6.25598 17.7018C6.96221 17.6399 7.65229 17.4871 8.27891 17.1318C8.53871 16.9841 8.78505 16.7889 8.99428 16.5714C9.24816 16.3071 9.23256 16.0204 9.00289 15.7293C8.73126 15.3853 8.36013 15.1912 7.97555 15.0206C7.89541 14.9849 7.81204 14.9587 7.7319 14.923C7.42316 14.7835 7.27525 14.454 7.37529 14.1339C7.47318 13.8216 7.80236 13.6197 8.11594 13.7262C8.80549 13.9599 9.44233 14.2978 9.92319 14.8834C10.5735 15.6741 10.5584 16.6835 9.88822 17.4603Z" fill="#64748B"/>
<path d="M5.52824 7.70797C4.45788 7.70685 3.59406 6.80289 3.59621 5.6859C3.5989 4.58675 4.47025 3.69171 5.53685 3.69282C6.60506 3.69394 7.46942 4.594 7.46888 5.70486C7.46834 6.81125 6.59807 7.70908 5.52824 7.70797Z" fill="#64748B"/>
</svg>
