<svg width="50" height="50" viewBox="0 0 50 50" fill="none" xmlns="http://www.w3.org/2000/svg">
<path d="M24.96 2.44156C21.7854 2.44156 18.6094 2.40687 15.4348 2.44823C8.96686 2.53362 3.35859 7.59019 2.53894 14.0143C2.46963 14.5613 2.43765 15.107 2.43765 15.6554C2.43365 21.8793 2.44165 28.1033 2.43365 34.3286C2.42699 39.9936 6.23869 45.1929 11.7483 46.9474C12.9252 47.3223 14.1287 47.5584 15.3695 47.5584C21.7694 47.5584 28.1707 47.6025 34.5706 47.5464C40.7186 47.4917 46.1777 42.7861 47.3012 36.7248C47.5864 35.1865 47.4944 33.6415 47.5264 32.0979C47.5331 31.783 47.5397 31.4628 47.5957 31.1546C47.7037 30.5636 48.2474 30.1473 48.8085 30.1847C49.4043 30.2247 49.8961 30.661 49.9347 31.2613C50.2386 35.8763 49.5562 40.2364 46.5455 43.9615C43.7587 47.409 40.1695 49.417 35.7501 49.9133C35.169 49.9787 34.5906 49.9987 34.0095 49.9987C27.9921 49.9987 21.9733 50.0053 15.9559 49.9987C8.38178 49.9907 2.04715 44.9234 0.3652 37.5307C0.135964 36.5234 0.00668596 35.5014 0.00668596 34.4647C0.00935149 28.174 -0.0119727 21.8833 0.012017 15.5926C0.0413378 7.99979 5.86685 1.3075 13.3677 0.193457C14.2579 0.0613726 15.1482 0 16.0492 0C22.0013 0.00533675 27.9521 0 33.9042 0.00400256C42.0381 0.00800512 48.6033 5.65695 49.8134 13.6994C49.8921 14.2238 49.9387 14.7588 49.94 15.2898C49.952 18.7347 49.9507 22.1795 49.948 25.6244C49.948 26.4823 49.5136 26.9999 48.7925 27.0266C48.0688 27.0533 47.5464 26.521 47.5331 25.6578C47.5091 24.1274 47.5251 22.5958 47.5224 21.0641C47.5197 19.1669 47.5424 17.2697 47.5091 15.3725C47.3985 9.24058 42.7378 3.77041 36.715 2.66037C35.7954 2.49093 34.8718 2.43222 33.9389 2.43356C30.9468 2.43756 27.9534 2.43489 24.9614 2.43489V2.44023L24.96 2.44156Z" fill="#64748B"/>
<path d="M20.0673 34.2579C19.7195 34.2513 19.4236 34.1205 19.177 33.8737C17.1086 31.803 15.0361 29.7377 12.9757 27.659C12.4412 27.12 12.4546 26.4156 12.9584 25.9273C13.4608 25.4416 14.1378 25.4563 14.6896 26.0046C16.3542 27.6564 18.0149 29.3108 19.6568 30.9852C19.9634 31.2987 20.1246 31.304 20.4365 30.9892C25.2678 26.1314 30.1124 21.2883 34.9543 16.4425C35.1182 16.2784 35.2808 16.1063 35.4674 15.9702C35.9365 15.6273 36.5576 15.6767 36.9774 16.0663C37.4026 16.4612 37.4892 17.0629 37.172 17.5659C37.0587 17.746 36.9041 17.9048 36.7522 18.0569C31.5717 23.2469 26.3886 28.4342 21.2068 33.6228C20.8843 33.9457 20.5618 34.2553 20.0633 34.2579H20.0673Z" fill="#0CCA4A"/>
</svg>
