<svg width="36" height="36" viewBox="0 0 36 36" fill="none" xmlns="http://www.w3.org/2000/svg">
<path fill-rule="evenodd" clip-rule="evenodd" d="M1.5 22.5C2.05228 22.5 2.5 22.9477 2.5 23.5V30.8333C2.5 31.5406 2.78095 32.2189 3.28105 32.719C3.78115 33.219 4.45942 33.5 5.16667 33.5H30.8333C31.5406 33.5 32.2189 33.219 32.719 32.719C33.219 32.2189 33.5 31.5406 33.5 30.8333V23.5C33.5 22.9477 33.9477 22.5 34.5 22.5C35.0523 22.5 35.5 22.9477 35.5 23.5V30.8333C35.5 32.071 35.0083 33.258 34.1332 34.1332C33.258 35.0083 32.071 35.5 30.8333 35.5H5.16667C3.92899 35.5 2.742 35.0083 1.86683 34.1332C0.991665 33.258 0.5 32.071 0.5 30.8333V23.5C0.5 22.9477 0.947715 22.5 1.5 22.5Z" fill="#64748B"/>
<path d="M17.2822 0.803759C17.4639 0.61642 17.7184 0.5 18 0.5C18.0079 0.499999 18.0157 0.500089 18.0236 0.500272C18.126 0.50264 18.2246 0.520411 18.3172 0.551359C18.4598 0.598886 18.5938 0.679397 18.7073 0.792893L27.8739 9.95956C28.2645 10.3501 28.2645 10.9832 27.8739 11.3738C27.4834 11.7643 26.8502 11.7643 26.4597 11.3738L19 3.91405V23.5C19 24.0523 18.5523 24.5 18 24.5C17.4477 24.5 17 24.0523 17 23.5V3.91438L9.5406 11.3738C9.15008 11.7643 8.51691 11.7643 8.12639 11.3738C7.73587 10.9832 7.73587 10.3501 8.12639 9.95956L17.2822 0.803759Z" fill="#0CCA4A"/>
</svg>
