<svg width="25" height="20" viewBox="0 0 25 20" fill="none" xmlns="http://www.w3.org/2000/svg">
<path d="M19.6188 6.3288C19.0771 2.72104 15.8939 0 12.215 0C11.7826 0 11.347 0.038835 10.9205 0.11521C7.28162 0.765696 4.66997 3.90938 4.71075 7.589C4.71787 8.25048 4.80525 8.88544 4.97224 9.49126C4.97224 9.49191 4.97289 9.4932 4.97289 9.49385C5.06544 9.83107 5.18259 10.1599 5.32499 10.479C5.33211 10.4951 5.33923 10.5113 5.347 10.5269C5.62726 11.145 6.00007 11.7275 6.46285 12.2712C6.50881 12.3256 6.55606 12.3793 6.60331 12.433L6.60719 12.4369C6.77548 12.6278 6.95153 12.8162 7.1224 12.9994C7.26674 13.154 7.41625 13.3139 7.56059 13.4744C7.58907 13.5061 7.61949 13.5366 7.64991 13.5676C7.66285 13.5812 7.67645 13.5948 7.69004 13.6084L7.74311 13.6654L9.50104 15.5663C9.51658 15.5812 9.53211 15.5968 9.54764 15.6136C9.65509 15.7314 9.76318 15.8492 9.87192 15.967L10.4868 16.6324C10.6072 16.7625 10.7269 16.8913 10.8454 17.0194C11.0273 17.2149 11.2972 17.5068 11.5489 17.7793C11.9082 18.1663 12.5205 18.1663 12.879 17.7793C13.1787 17.455 13.5146 17.0919 13.7353 16.8531C13.802 16.7812 13.8687 16.7094 13.9353 16.6375L14.3146 16.2285C14.5075 16.0201 14.6997 15.8116 14.892 15.6026C14.9108 15.5819 14.9295 15.5631 14.9483 15.5456L14.9496 15.5443L16.8635 13.4822L16.9567 13.3812C17.1904 13.1288 17.4221 12.8777 17.6544 12.6272C18.2648 11.9715 18.7399 11.2705 19.079 10.5275C19.0868 10.512 19.0939 10.4958 19.101 10.4796C19.2454 10.1586 19.3638 9.82977 19.457 9.4932C19.457 9.4932 19.4572 9.49277 19.4577 9.49191C19.7321 8.50162 19.7865 7.44401 19.6188 6.3288ZM18.2706 9.4932C18.1593 9.8343 18.0188 10.1625 17.8493 10.479C17.8408 10.4951 17.8318 10.5113 17.8234 10.5269C17.5476 11.0337 17.1975 11.5107 16.7716 11.9618C15.6603 13.1385 14.5438 14.3482 13.4635 15.5184C13.1438 15.8654 12.824 16.2116 12.5036 16.5579C12.4797 16.5838 12.4428 16.6233 12.3949 16.657C12.3457 16.69 12.2855 16.7165 12.2137 16.7165C12.0842 16.7165 11.9923 16.633 11.9347 16.5709C11.3684 15.956 10.7897 15.3327 10.2305 14.7307C9.30493 13.7333 8.347 12.7023 7.41561 11.6783C7.09133 11.3223 6.81625 10.9353 6.59101 10.5269C6.58195 10.5113 6.57289 10.4951 6.56447 10.479C6.3923 10.1618 6.24991 9.83171 6.13729 9.49385C6.13729 9.4932 6.13664 9.49191 6.13664 9.49126C5.43114 7.3767 5.88098 4.93981 7.47774 3.21553C8.56318 2.04337 9.8881 1.3521 11.4137 1.16246C11.6836 1.1288 11.9561 1.11197 12.2247 1.11197C15.2855 1.11197 17.9852 3.37994 18.5036 6.3877C18.5561 6.69256 18.6163 7.10939 18.6059 7.3657C18.5994 8.12492 18.4887 8.83171 18.2713 9.49126C18.2713 9.49191 18.2706 9.49256 18.2706 9.4932Z" fill="#64748B"/>
<path d="M14.9489 4.81165C14.2182 4.07638 13.248 3.6712 12.215 3.6712H12.1761C11.2182 3.6712 10.2629 4.05825 9.55606 4.73333C8.80266 5.45243 8.38324 6.44013 8.37418 7.51456C8.369 8.21812 8.56059 8.89774 8.92564 9.49126C8.92564 9.49191 8.92628 9.4932 8.92693 9.49385C9.08033 9.74498 9.26544 9.97994 9.47904 10.1955C9.57871 10.2958 9.68292 10.3903 9.79101 10.4783C9.81108 10.4945 9.83114 10.5107 9.85185 10.5269C10.5263 11.055 11.3457 11.3411 12.2065 11.3411H12.2098C13.114 11.3405 13.9373 11.0382 14.5878 10.5269C14.6078 10.5113 14.6286 10.4951 14.6486 10.4783C14.9852 10.2026 15.2732 9.8699 15.4985 9.49321C15.4991 9.49256 15.4991 9.49191 15.4997 9.49126C15.8467 8.91262 16.046 8.23107 16.0512 7.4945C16.0583 6.48738 15.6661 5.53398 14.9489 4.81165ZM14.0687 9.49385C13.58 9.94434 12.925 10.2201 12.2078 10.2201H12.1975C11.4881 10.2175 10.8408 9.9424 10.3574 9.49385C10.3567 9.4932 10.3554 9.49256 10.3548 9.49126C9.81949 8.99418 9.48421 8.28544 9.48486 7.50097C9.4868 5.98058 10.6868 4.79029 12.2169 4.79029H12.2285C12.9632 4.79353 13.6486 5.07832 14.158 5.59353C14.668 6.10874 14.9464 6.79741 14.9418 7.53204C14.9373 8.30356 14.6027 9 14.0713 9.49126C14.0706 9.49256 14.0693 9.4932 14.0687 9.49385Z" fill="#64748B"/>
<path d="M24.523 17.0162L22.7988 11.8214C22.3735 10.578 21.7554 9.49126 20.4687 9.49126L18.2713 9.49126C18.2713 9.49191 18.2706 9.49256 18.2706 9.4932C18.1593 9.8343 18.0188 10.1625 17.8493 10.479C17.8408 10.4951 17.8318 10.5113 17.8234 10.5269L20.4693 10.5269C20.8803 10.5269 21.3289 10.7236 21.8175 12.1521L23.5412 17.3424C23.6661 17.7191 23.6078 18.1236 23.3813 18.4518C23.1664 18.7618 22.8324 18.9482 22.4648 18.9631C22.4473 18.9638 22.4292 18.9644 22.4111 18.9644H2.23049C2.21237 18.9644 2.19425 18.9638 2.17612 18.9631C1.80849 18.9482 1.4745 18.7618 1.26027 18.4518C1.03373 18.1236 0.974829 17.7191 1.1004 17.3424L2.82467 12.1495C3.30428 10.7236 3.75541 10.5269 4.17224 10.5269L6.59101 10.5269C6.58195 10.5113 6.57289 10.4951 6.56447 10.479C6.3923 10.1618 6.24991 9.83171 6.13729 9.49385C6.13729 9.4932 6.13664 9.49191 6.13664 9.49126L4.17224 9.49126C2.88551 9.49126 2.26027 10.578 1.84214 11.8214L0.117224 17.0162C-0.352679 18.4317 0.644732 19.9379 2.1347 19.9981C2.16641 19.9993 2.19813 20 2.23049 20H22.4104C22.4421 20 22.4745 19.9993 22.5062 19.9981C23.9962 19.9379 24.9929 18.4317 24.523 17.0162Z" fill="#64748B"/>
</svg>
