<svg width="52" height="56" viewBox="0 0 52 56" fill="none" xmlns="http://www.w3.org/2000/svg">
<path d="M41.4077 29.8867C39.634 29.8898 37.8618 29.8914 36.0881 29.8914H22.9364C21.1114 29.8914 19.288 29.8914 17.4631 29.8867C16.5894 29.8867 15.8477 29.3268 15.6164 28.4971C15.3821 27.6456 15.7421 26.7662 16.5149 26.3102C16.7912 26.1458 17.0969 26.0667 17.4491 26.0667C20.3666 26.0667 23.284 26.0667 26.1999 26.0667H26.8252C31.6824 26.0667 36.5381 26.0667 41.3953 26.0698C42.4769 26.0698 43.2916 26.8888 43.2932 27.9713C43.2932 29.0585 42.4831 29.8821 41.4077 29.8852V29.8867Z" fill="#0CCA4A"/>
<path d="M39.3638 40.9775C39.4119 43.1582 39.4538 45.2194 38.6888 47.2232C36.7769 52.2281 33.2962 55.0648 28.0526 55.9007C27.6507 55.9628 27.2239 55.9922 26.6746 55.9922C25.309 55.9922 23.9418 55.9922 22.5762 55.9953C21.0694 55.9953 19.5626 55.9984 18.0542 55.9984C16.2805 55.9984 14.5052 55.9953 12.7315 55.9891C6.4233 55.9674 0.881741 51.0277 0.115141 44.7417C0.0499647 44.2051 0.0189282 43.6235 0.0189282 42.9085C0.0189282 39.8655 0.0220319 36.821 0.0266873 33.778V33.761C0.0375501 26.9725 0.046861 19.9529 0.000306374 13.0481C-0.0214191 9.90899 1.11296 6.85363 3.1924 4.44501C5.28581 2.01933 8.15668 0.462182 11.2821 0.0620378C11.3208 0.0558341 11.3596 0.0480793 11.4046 0.0341208L11.521 0H27.9129L27.9797 0.0108566C30.0886 0.348963 31.7289 0.930567 33.1379 1.83942C37.2192 4.47293 39.2567 8.07112 39.3669 12.8387C39.3793 13.3195 39.3762 13.8112 39.3731 14.2889V14.3369C39.3731 14.5169 39.37 14.6968 39.37 14.8767C39.3669 16.4819 38.3862 17.0573 37.469 17.0589C36.2648 17.0589 35.5479 16.2322 35.5448 14.8472V14.3773C35.5479 13.3211 35.551 12.2292 35.3384 11.1466C34.5594 7.18708 31.3161 4.26045 27.2643 3.86341C26.5815 3.79672 25.8909 3.78741 25.3028 3.78741C25.1352 3.78741 24.9707 3.78741 24.8031 3.78741H24.7612C24.5812 3.78741 24.4027 3.79051 24.2227 3.79051H24.083C22.0393 3.78276 19.9971 3.7781 17.9549 3.7781C16.237 3.7781 14.7116 3.78121 13.2901 3.79051C9.81248 3.81222 7.11231 5.25771 5.26719 8.08198C4.32834 9.51815 3.85193 11.187 3.84882 13.0404C3.83175 24.5034 3.83175 33.9921 3.84882 42.9023C3.85658 47.4295 6.98506 51.175 11.4574 52.0125C12.0021 52.1133 12.5778 52.1661 13.1691 52.1676C15.4208 52.1738 18.093 52.18 20.8413 52.18C22.7764 52.18 24.5377 52.1769 26.2292 52.1707C30.8272 52.1537 34.502 49.1138 35.3756 44.6052C35.565 43.6328 35.5572 42.6464 35.5494 41.6956C35.5494 41.387 35.5448 41.0923 35.5494 40.7961C35.5603 39.9043 36.1516 39.1397 36.9911 38.9396C37.1416 38.9024 37.2968 38.8838 37.4504 38.8838C38.1658 38.8838 38.8036 39.2637 39.1559 39.8981C39.2412 40.0516 39.2924 40.1664 39.3235 40.2703L39.353 40.3758L39.3654 40.9791L39.3638 40.9775Z" fill="#CBD5E1"/>
<path d="M52.0005 27.1276V29.2726L51.9787 29.3656C51.6404 30.8297 50.8428 32.0891 49.3949 33.4492C48.498 34.293 47.6181 35.1817 46.7662 36.0409C46.223 36.5899 45.6659 37.1529 45.1104 37.6988C44.6991 38.1021 44.2057 38.3146 43.6858 38.3146C43.1985 38.3146 42.7283 38.1176 42.3605 37.7547C41.9865 37.3871 41.7786 36.9125 41.7755 36.4178C41.7724 35.8966 41.9928 35.3848 42.3993 34.9738C43.4515 33.9099 44.5533 32.8134 45.5262 31.8456L45.5775 31.7944C46.1097 31.264 46.642 30.7351 47.1712 30.2047C47.8664 29.5098 48.2016 28.8429 48.2 28.1605C48.2 27.4936 47.8555 26.8174 47.1789 26.1474C46.6172 25.5906 46.0554 25.0369 45.4921 24.4832C44.4664 23.472 43.4096 22.4329 42.3823 21.4015C41.6126 20.6322 41.566 19.5078 42.2736 18.7292C42.6554 18.3074 43.183 18.067 43.7215 18.067C44.1808 18.067 44.6215 18.2453 44.9598 18.5695C46.9415 20.4632 48.7571 22.2499 50.5092 24.0319C51.209 24.7407 51.6746 25.6961 51.9756 27.0314L51.9973 27.1229L52.0005 27.1276Z" fill="#0CCA4A"/>
</svg>
