<svg width="32" height="56" viewBox="0 0 32 56" fill="none" xmlns="http://www.w3.org/2000/svg">
<path d="M15.9689 32C8.23003 31.9917 1.98448 25.2375 2.00003 16.8917C2.01948 8.67918 8.31947 1.99168 16.0311 2.00001C23.7545 2.00835 30.0039 8.73335 30 17.0333C29.9961 25.3 23.7039 32.0083 15.9689 32Z" fill="white"/>
<path d="M31.7038 13.5484C30.3816 5.83489 23.6283 0.00823038 16.016 1.22511e-05C8.21588 -0.00984951 1.51421 5.93515 0.229575 14.081C-0.382229 17.9714 0.223316 21.6893 2.12757 25.1048C4.83453 29.9617 8.92626 32.7016 14.2369 33.5284V34.2926C14.2369 38.6384 14.2275 42.9841 14.251 47.3299C14.2541 47.7786 14.3668 48.2766 14.5765 48.6612C14.9489 49.3483 15.8079 49.6145 16.5292 49.391C17.2818 49.1559 17.7794 48.4344 17.781 47.5205C17.7872 43.1123 17.7841 38.7041 17.7841 34.2976V33.5152C22.4047 32.861 26.1569 30.6454 28.903 26.7106C31.6553 22.7692 32.5269 18.3445 31.7038 13.5484ZM15.9816 29.8154C9.13124 29.8088 3.60467 23.9493 3.61875 16.7075C3.6344 9.58071 9.21261 3.77871 16.0395 3.78693C22.8757 3.7935 28.407 9.63002 28.4023 16.8307C28.3976 24.0019 22.8303 29.822 15.9816 29.8154Z" fill="#0CCA4A"/>
<path d="M28.7657 51.462C27.2464 53.2486 25.2717 54.2413 23.1422 54.9448C20.8154 55.7157 18.4167 55.9869 15.8428 56C12.7165 55.9639 9.53382 55.4806 6.5546 53.9668C5.16982 53.2634 3.92275 52.3643 2.97766 51.0609C1.33471 48.7927 1.42076 46.0002 3.20141 43.8454C4.6034 42.1492 6.43411 41.1646 8.41348 40.4595C9.31163 40.139 10.288 40.7061 10.59 41.6199C10.8967 42.5502 10.4758 43.538 9.59328 43.9736C8.76554 44.3812 7.91434 44.7477 7.12572 45.226C6.64692 45.5153 6.21505 45.9377 5.85204 46.3815C5.17921 47.2017 5.20112 47.9824 5.84891 48.8256C6.54052 49.7263 7.46683 50.2983 8.45416 50.7552C11.5711 52.2032 14.8539 52.4695 18.1992 52.1736C20.2537 51.9912 22.2612 51.5408 24.0841 50.4939C24.8399 50.0583 25.5565 49.483 26.1652 48.842C26.9037 48.0629 26.8584 47.2181 26.1902 46.3601C25.4 45.346 24.3204 44.774 23.2016 44.2711C22.9685 44.1659 22.7259 44.0886 22.4928 43.9834C21.5946 43.5725 21.1644 42.6012 21.4554 41.6577C21.7402 40.7373 22.6978 40.1423 23.61 40.4562C25.616 41.1449 27.4686 42.1409 28.8675 43.8668C30.7592 46.1974 30.7154 49.1724 28.7657 51.462Z" fill="#CBD5E1"/>
<path d="M16.0821 22.7182C12.9684 22.7149 10.4554 20.0506 10.4617 16.7584C10.4695 13.5188 13.0044 10.8808 16.1072 10.8841C19.2147 10.8874 21.7292 13.5402 21.7276 16.8143C21.7261 20.0753 19.1944 22.7215 16.0821 22.7182Z" fill="#CBD5E1"/>
</svg>
